<?xml version="1.0" ?><svg enable-background="new 0 0 512 512" height="512px" id="Layer_1" version="1.1" viewBox="0 0 512 512" width="512px" xml:space="preserve" xmlns="http://www.w3.org/2000/svg" xmlns:xlink="http://www.w3.org/1999/xlink"><g><polyline fill="none" points="   346.2,279.9 346.2,328.6 255.6,381 164.9,328.6 164.9,279.9  " stroke="#000000" stroke-linecap="round" stroke-linejoin="round" stroke-miterlimit="10" stroke-width="10"/><polyline fill="none" points="   346.2,223.9 255.6,171.6 164.9,223.9  " stroke="#000000" stroke-linecap="round" stroke-linejoin="round" stroke-miterlimit="10" stroke-width="10"/><polyline fill="none" points="   164.9,223.9 255.6,276.3 255.6,381  " stroke="#000000" stroke-linecap="round" stroke-linejoin="round" stroke-miterlimit="10" stroke-width="10"/><line fill="none" stroke="#000000" stroke-linecap="round" stroke-linejoin="round" stroke-miterlimit="10" stroke-width="10" x1="255.6" x2="346.2" y1="276.3" y2="223.9"/><polyline fill="none" points="   346.2,223.9 371.4,183.4 280.7,131 255.6,171.6  " stroke="#000000" stroke-linecap="round" stroke-linejoin="round" stroke-miterlimit="10" stroke-width="10"/><polyline fill="none" points="   257.1,278.8 280.8,320.3 369.9,265.3 346.2,223.9  " stroke="#000000" stroke-linecap="round" stroke-linejoin="round" stroke-miterlimit="10" stroke-width="10"/><polyline fill="none" points="   254.9,278.8 231.2,320.3 142.1,265.3 165.8,223.9  " stroke="#000000" stroke-linecap="round" stroke-linejoin="round" stroke-miterlimit="10" stroke-width="10"/><polyline fill="none" points="   165.8,223.9 140.6,183.4 231.3,131 256.4,171.6  " stroke="#000000" stroke-linecap="round" stroke-linejoin="round" stroke-miterlimit="10" stroke-width="10"/></g></svg>